<?xml version="1.0" standalone="no"?>
<!DOCTYPE svg PUBLIC "-//W3C//DTD SVG 20010904//EN"
 "http://www.w3.org/TR/2001/REC-SVG-20010904/DTD/svg10.dtd">
<svg version="1.0" xmlns="http://www.w3.org/2000/svg"
 width="512.000000pt" height="512.000000pt" viewBox="0 0 512.000000 512.000000"
 preserveAspectRatio="xMidYMid meet">
<metadata>
Created by potrace 1.11, written by Peter Selinger 2001-2013
</metadata>
<g transform="translate(0.000000,512.000000) scale(0.100000,-0.100000)"
fill="#000000" stroke="none">
<path d="M4188 4930 c-43 -43 -34 -78 40 -153 l57 -57 -142 -142 -142 -142
-65 62 c-74 71 -109 80 -151 37 -31 -30 -32 -73 -4 -110 l22 -27 -582 -582
c-647 -647 -614 -607 -550 -680 29 -34 30 -36 14 -65 -8 -17 -18 -31 -20 -31
-2 0 -41 18 -85 41 -44 23 -119 54 -168 69 l-87 28 -3 124 -2 123 31 20 c79
51 137 173 126 266 -15 127 -125 233 -284 274 -231 60 -486 -77 -510 -274 -11
-93 47 -215 126 -266 l31 -20 0 -121 0 -120 -81 -24 c-44 -12 -129 -47 -187
-76 l-107 -53 -80 79 -79 79 -1 93 c0 85 -3 98 -31 148 -36 64 -97 115 -157
131 -74 20 -182 7 -262 -31 -90 -43 -180 -133 -226 -225 -42 -85 -51 -193 -24
-276 40 -119 156 -188 295 -176 l67 6 81 -82 82 -82 -50 -95 c-27 -52 -61
-137 -76 -188 l-28 -92 -121 0 -120 0 -20 31 c-51 79 -173 137 -266 126 -197
-24 -334 -279 -274 -510 54 -208 210 -322 377 -273 61 17 133 68 163 115 l20
31 123 0 c89 0 124 -3 126 -12 29 -102 56 -171 99 -256 l51 -103 -82 -82 -81
-81 -93 -1 c-85 0 -98 -3 -148 -31 -64 -36 -115 -97 -131 -157 -6 -23 -9 -76
-7 -117 6 -102 50 -193 132 -276 84 -84 172 -126 274 -132 42 -2 96 1 119 7
60 16 121 67 157 131 28 50 31 63 31 148 l1 93 84 84 85 84 110 -54 c61 -30
143 -62 182 -72 l73 -18 0 -130 0 -130 -31 -20 c-79 -51 -137 -173 -126 -266
24 -197 279 -334 510 -274 208 54 322 210 273 377 -17 61 -68 133 -115 163
l-31 20 0 131 0 131 63 18 c34 9 115 42 180 73 l118 56 89 -89 89 -88 -6 -66
c-6 -80 7 -134 50 -197 46 -70 109 -105 197 -112 233 -16 454 178 468 409 8
132 -35 217 -139 274 -49 27 -63 30 -147 30 l-92 1 -85 84 c-47 47 -85 88 -85
93 0 4 24 57 54 117 30 61 62 139 71 175 l18 65 131 0 131 0 20 -31 c51 -79
173 -137 266 -126 197 24 334 279 274 510 -54 208 -210 322 -377 273 -61 -17
-133 -68 -163 -115 l-20 -31 -130 0 -130 0 -23 81 c-17 63 -75 200 -109 260
-2 3 13 13 33 22 l36 18 34 -31 c73 -63 33 -95 680 551 l582 582 27 -22 c38
-29 71 -27 107 9 43 43 34 78 -40 153 l-57 57 142 142 142 142 65 -62 c75 -73
101 -78 148 -32 56 56 55 58 -320 433 -372 372 -365 366 -424 307z m317 -430
l100 -100 -143 -143 -142 -142 -102 103 -103 102 140 140 c77 77 142 140 145
140 3 0 50 -45 105 -100z m-400 -400 l180 -180 -543 -543 -542 -542 -182 182
-183 183 57 57 58 57 35 -34 c62 -61 145 -38 145 40 0 27 -7 43 -30 65 -16 16
-30 34 -30 40 0 6 24 35 54 64 l54 54 38 -32 c103 -84 206 19 114 114 l-34 35
59 60 59 60 36 -35 c44 -43 89 -47 125 -10 35 34 32 68 -12 116 l-36 40 58 59
59 59 38 -34 c46 -42 90 -46 125 -13 35 33 31 80 -11 126 l-35 37 77 78 c42
42 79 77 82 77 3 0 86 -81 185 -180z m-1926 -276 c33 -10 69 -30 95 -54 38
-36 41 -43 41 -90 0 -47 -3 -54 -41 -90 -100 -93 -288 -93 -388 0 -38 35 -41
43 -41 89 0 45 4 55 36 87 67 67 189 91 298 58z m-1088 -425 c64 -24 77 -120
28 -217 -50 -101 -137 -162 -241 -170 -55 -4 -59 -3 -93 31 -31 31 -35 41 -35
89 0 127 111 253 243 277 43 8 52 7 98 -10z m1069 -292 l0 -258 25 -24 c15
-16 36 -25 55 -25 19 0 40 9 55 25 22 22 25 32 25 105 0 45 4 80 10 80 18 0
142 -50 201 -81 63 -34 66 -40 44 -79 -21 -36 -18 -73 6 -105 l22 -27 -262
-262 c-234 -235 -261 -265 -261 -294 0 -44 38 -82 82 -82 29 0 59 27 294 261
l262 262 27 -22 c32 -24 69 -27 105 -6 14 8 28 14 32 15 15 0 96 -175 112
-242 l6 -28 -75 0 c-67 0 -79 -3 -100 -25 -33 -32 -33 -78 0 -110 l24 -25 258
0 258 0 0 -80 0 -80 -258 0 -258 0 -24 -25 c-16 -15 -25 -36 -25 -55 0 -19 9
-40 25 -55 21 -22 33 -25 99 -25 l74 0 -10 -37 c-16 -61 -74 -179 -122 -251
-108 -163 -292 -304 -478 -368 l-68 -23 0 35 c0 74 -84 111 -135 59 l-25 -24
0 -218 0 -218 -80 0 -80 0 0 218 0 218 -25 24 c-51 52 -135 15 -135 -60 0 -21
-5 -35 -12 -35 -7 1 -52 15 -99 33 -166 64 -321 182 -429 327 -52 71 -135 234
-146 289 l-6 31 81 0 c74 0 84 2 106 25 33 32 33 78 0 110 l-24 25 -258 0
-258 0 0 80 0 80 258 0 258 0 24 25 c33 32 33 78 0 110 -22 23 -32 25 -110 25
-99 0 -95 -13 -44 120 96 252 305 454 568 550 45 17 84 30 86 30 3 0 5 -38 5
-85 0 -78 2 -88 25 -110 15 -16 36 -25 55 -25 19 0 40 9 55 25 l25 24 0 258 0
258 80 0 80 0 0 -258z m-872 -120 l52 -53 -58 -57 -58 -57 -54 55 -54 55 54
55 c30 30 57 55 60 55 3 0 29 -24 58 -53z m1616 -86 l79 -79 -83 -42 -83 -42
-39 40 -40 39 41 82 c23 44 42 81 44 81 1 0 38 -36 81 -79z m-2332 -629 c91
-98 90 -287 -2 -386 -36 -38 -43 -41 -90 -41 -47 0 -54 3 -90 41 -89 96 -93
283 -8 380 40 45 62 55 113 49 31 -3 48 -13 77 -43z m3200 0 c91 -98 90 -287
-2 -386 -36 -38 -43 -41 -90 -41 -47 0 -54 3 -90 41 -89 96 -93 283 -8 380 40
45 62 55 113 49 31 -3 48 -13 77 -43z m-2482 -1097 l-60 -60 -57 58 -58 57 60
60 59 60 58 -57 58 -58 -60 -60z m1695 115 l60 -60 -58 -57 -57 -58 -62 62
-63 63 55 55 c30 30 57 55 60 55 3 0 32 -27 65 -60z m-2007 -171 c101 -50 162
-137 170 -241 4 -55 3 -59 -31 -93 -47 -47 -105 -50 -192 -11 -126 58 -209
219 -164 319 29 63 121 75 217 26z m2382 14 c80 -47 62 -199 -36 -297 -73 -72
-189 -106 -257 -75 -92 42 -65 218 49 318 75 66 184 90 244 54z m-1181 -509
c33 -10 69 -30 95 -54 38 -36 41 -43 41 -90 0 -47 -3 -54 -41 -90 -100 -93
-288 -93 -388 0 -38 35 -41 43 -41 89 0 45 4 55 36 87 67 67 189 91 298 58z"/>
<path d="M1664 2616 c-124 -57 -176 -192 -120 -312 57 -124 192 -176 312 -120
124 57 176 192 120 312 -57 124 -192 176 -312 120z m151 -161 c50 -49 15 -135
-55 -135 -19 0 -40 9 -55 25 -16 15 -25 36 -25 55 0 19 9 40 25 55 15 16 36
25 55 25 19 0 40 -9 55 -25z"/>
<path d="M1933 1910 c-81 -12 -183 -46 -234 -78 -158 -101 -120 -268 78 -342
201 -75 517 -60 676 33 166 98 132 271 -69 347 -117 43 -310 60 -451 40z m304
-166 c79 -16 153 -47 153 -64 0 -33 -181 -80 -310 -80 -129 0 -310 47 -310 80
0 16 73 48 146 64 92 19 227 20 321 0z"/>
</g>
</svg>
